<svg fill="none" xmlns="http://www.w3.org/2000/svg" viewBox="0 0 120 485"><path d="M29.6 27c-.4 0-.6-.1-1-.3L22 23v7c0 .6.4 1 .9 1h13.2c.6 0 .9-.4.9-1v-7l-6.5 3.7c-.4.2-.6.3-.9.3Zm6.5-8H22.9c-.5 0-.9.5-.9 1v.8l7.5 4.2 7.5-4.2V20c0-.5-.4-1-.9-1ZM30 50h-2v2h2v-2ZM30 54h-2v8h2v-8ZM23 93h13c-.2-2.6-2.1-4.8-4.7-5.5 1-.6 1.7-1.7 1.7-3 0-1.9-1.6-3.5-3.5-3.5S26 82.6 26 84.5c0 1.3.7 2.4 1.7 3-2.6.7-4.5 2.9-4.7 5.5ZM37 119h-7v-7h-2v7h-7v2h7v7h2v-7h7v-2ZM37 154H21v2h16v-2ZM36.7 196.3l-3.1-3.1c.9-1.2 1.4-2.6 1.4-4.2 0-3.9-3.1-7-7-7s-7 3.1-7 7 3.1 7 7 7c1.6 0 3-.5 4.2-1.4l3.1 3.1c.2.2.4.3.7.3.6 0 1-.4 1-1 0-.2-.1-.5-.3-.7ZM23 189c0-2.8 2.2-5 5-5s5 2.2 5 5-2.2 5-5 5-5-2.2-5-5ZM36.3 222l-3.5.2-3.2-4.9c-.1-.2-.4-.3-.6-.3-.2 0-.5.1-.6.3l-3.2 4.9h-3.5c-.4 0-.7.3-.7.7v.2l1.9 6.8c.2.7.7 1.1 1.4 1.1h9.4c.7 0 1.2-.4 1.4-1.1L37 223v-.2c0-.4-.3-.8-.7-.8Zm-7.3-3.1 2.2 3.2h-4.3l2.1-3.2ZM30 250h-2v12h2v-12ZM26 254h-2v8h2v-8ZM34 253h-2v9h2v-9ZM35 282l-1-1-4.5 4.5L25 281l-1 1 4.5 4.5L24 291l1 1 4.5-4.5L34 292l1-1-4.5-4.5L35 282ZM30.1 317.82l4.7-4.5c.3-.3.3-.8 0-1.1-.3-.3-.8-.3-1.1 0l-4.2 4-4.2-4c-.3-.3-.8-.3-1.1 0-.1.2-.2.4-.2.6 0 .2.1.4.2.5l4.7 4.5c.4.3.8.3 1.2 0ZM29.5 348l-5-10h10" fill="#000"/><path d="M61.6 27c-.4 0-.6-.1-1-.3L54 23v7c0 .6.4 1 .9 1h13.2c.6 0 .9-.4.9-1v-7l-6.5 3.7c-.4.2-.6.3-.9.3Zm6.5-8H54.9c-.5 0-.9.5-.9 1v.8l7.5 4.2 7.5-4.2V20c0-.5-.4-1-.9-1Z" fill="#000" opacity=".6"/><path d="M93.6 27c-.4 0-.6-.1-1-.3L86 23v7c0 .6.4 1 .9 1h13.2c.6 0 .9-.4.9-1v-7l-6.5 3.7c-.4.2-.6.3-.9.3Zm6.5-8H86.9c-.5 0-.9.5-.9 1v.8l7.5 4.2 7.5-4.2V20c0-.5-.4-1-.9-1Z" fill="#000" opacity=".3"/><g opacity=".6" fill="#000"><path d="M62 50h-2v2h2v-2ZM62 54h-2v8h2v-8Z"/></g><g opacity=".3" fill="#000"><path d="M94 50h-2v2h2v-2ZM94 54h-2v8h2v-8Z"/></g><path d="M55 93h13c-.2-2.6-2.1-4.8-4.7-5.5 1-.6 1.7-1.7 1.7-3 0-1.9-1.6-3.5-3.5-3.5S58 82.6 58 84.5c0 1.3.7 2.4 1.7 3-2.6.7-4.5 2.9-4.7 5.5Z" fill="#000" opacity=".6"/><path d="M87 93h13c-.2-2.6-2.1-4.8-4.7-5.5 1-.6 1.7-1.7 1.7-3 0-1.9-1.6-3.5-3.5-3.5S90 82.6 90 84.5c0 1.3.7 2.4 1.7 3-2.6.7-4.5 2.9-4.7 5.5Z" fill="#000" opacity=".3"/><path d="M69 119h-7v-7h-2v7h-7v2h7v7h2v-7h7v-2Z" fill="#000" opacity=".6"/><path d="M101 119h-7v-7h-2v7h-7v2h7v7h2v-7h7v-2Z" fill="#000" opacity=".3"/><path d="M69 154H53v2h16v-2Z" fill="#000" opacity=".6"/><path d="M101 154H85v2h16v-2Z" fill="#000" opacity=".3"/><path d="m68.7 196.3-3.1-3.1c.9-1.2 1.4-2.6 1.4-4.2 0-3.9-3.1-7-7-7s-7 3.1-7 7 3.1 7 7 7c1.6 0 3-.5 4.2-1.4l3.1 3.1c.2.2.4.3.7.3.6 0 1-.4 1-1 0-.2-.1-.5-.3-.7ZM55 189c0-2.8 2.2-5 5-5s5 2.2 5 5-2.2 5-5 5-5-2.2-5-5Z" fill="#000" opacity=".6"/><path d="m100.7 196.3-3.1-3.1c.9-1.2 1.4-2.6 1.4-4.2 0-3.9-3.1-7-7-7s-7 3.1-7 7 3.1 7 7 7c1.6 0 3-.5 4.2-1.4l3.1 3.1c.2.2.4.3.7.3.6 0 1-.4 1-1 0-.2-.1-.5-.3-.7ZM87 189c0-2.8 2.2-5 5-5s5 2.2 5 5-2.2 5-5 5-5-2.2-5-5Z" fill="#000" opacity=".3"/><path d="m68.3 222-3.5.2-3.2-4.9c-.1-.2-.4-.3-.6-.3-.2 0-.5.1-.6.3l-3.2 4.9h-3.5c-.4 0-.7.3-.7.7v.2l1.9 6.8c.2.7.7 1.1 1.4 1.1h9.4c.7 0 1.2-.4 1.4-1.1L69 223v-.2c0-.4-.3-.8-.7-.8Zm-7.3-3.1 2.2 3.2h-4.3l2.1-3.2Z" fill="#000" opacity=".6"/><path d="m100.3 222-3.5.2-3.2-4.9c-.1-.2-.4-.3-.6-.3-.2 0-.5.1-.6.3l-3.2 4.9h-3.5c-.4 0-.7.3-.7.7v.2l1.9 6.8c.2.7.7 1.1 1.4 1.1h9.4c.7 0 1.2-.4 1.4-1.1l1.9-6.9v-.2c0-.4-.3-.8-.7-.8Zm-7.3-3.1 2.2 3.2h-4.3l2.1-3.2Z" fill="#000" opacity=".3"/><g opacity=".6" fill="#000"><path d="M62 250h-2v12h2v-12ZM58 254h-2v8h2v-8ZM66 253h-2v9h2v-9Z"/></g><g opacity=".3" fill="#000"><path d="M94 250h-2v12h2v-12ZM90 254h-2v8h2v-8ZM98 253h-2v9h2v-9Z"/></g><path d="m67 282-1-1-4.5 4.5L57 281l-1 1 4.5 4.5L56 291l1 1 4.5-4.5L66 292l1-1-4.5-4.5L67 282Z" fill="#000" opacity=".6"/><path d="m99 282-1-1-4.5 4.5L89 281l-1 1 4.5 4.5L88 291l1 1 4.5-4.5L98 292l1-1-4.5-4.5L99 282Z" fill="#000" opacity=".3"/><path d="m62.1 317.82 4.7-4.5c.3-.3.3-.8 0-1.1-.3-.3-.8-.3-1.1 0l-4.2 4-4.2-4c-.3-.3-.8-.3-1.1 0-.1.2-.2.4-.2.6 0 .2.1.4.2.5l4.7 4.5c.4.3.8.3 1.2 0Z" fill="#000" opacity=".6"/><path d="m94.1 317.82 4.7-4.5c.3-.3.3-.8 0-1.1-.3-.3-.8-.3-1.1 0l-4.2 4-4.2-4c-.3-.3-.8-.3-1.1 0-.1.2-.2.4-.2.6 0 .2.1.4.2.5l4.7 4.5c.4.3.8.3 1.2 0Z" fill="#000" opacity=".3"/><path d="m61.5 348-5-10h10" fill="#000" opacity=".6"/><path d="m93.5 348-5-10h10" fill="#000" opacity=".3"/><path d="m29.5 367 5 10h-10" fill="#000"/><path d="m61.5 367 5 10h-10" fill="#000" opacity=".6"/><path d="m93.5 367 5 10h-10" fill="#000" opacity=".3"/><g clip-path="url(#a)"><g clip-path="url(#b)"><path d="M31.35 396.15c1.6-.5 2.77.3 3.41 1.1.53-.2 1.17-.4 1.81-.6a2 2 0 0 1-.85 1.6c.75.2 1.28-.4 1.28-.4-.1.9-.96 1.7-1.5 1.89-.2 6.27-2.98 10.36-9.49 10.26h-.42c-.32 0-3.95-.4-4.59-1.8 2.13.2 3.63-.4 4.37-1.09-.85-.3-2.56-.4-2.77-2.79.32.2.53.3 1.17.2-1.17-.8-2.45-1.5-2.34-3.48.32.3.96.5 1.28.4-.64-.2-1.92-3.1-.86-4.59 1.71 1.7 3.52 3.39 6.72 3.49.22-2.1 1.07-3.49 2.78-4.19Z" fill="#000"/></g></g><g clip-path="url(#c)"><g clip-path="url(#d)" opacity=".6"><path d="M63.35 396.15c1.6-.5 2.77.3 3.41 1.1.53-.2 1.17-.4 1.81-.6a2 2 0 0 1-.85 1.6c.75.2 1.28-.4 1.28-.4-.1.9-.96 1.7-1.5 1.89-.2 6.27-2.98 10.36-9.49 10.26h-.42c-.32 0-3.95-.4-4.59-1.8 2.13.2 3.63-.4 4.37-1.09-.85-.3-2.56-.4-2.77-2.79.32.2.53.3 1.17.2-1.17-.8-2.45-1.5-2.34-3.48.32.3.96.5 1.28.4-.64-.2-1.92-3.1-.86-4.59 1.71 1.7 3.52 3.39 6.72 3.49.22-2.1 1.07-3.49 2.78-4.19Z" fill="#000"/></g></g><g clip-path="url(#e)"><g clip-path="url(#f)" opacity=".3"><path d="M95.35 396.15c1.6-.5 2.77.3 3.41 1.1.53-.2 1.17-.4 1.81-.6a2 2 0 0 1-.85 1.6c.75.2 1.28-.4 1.28-.4-.1.9-.96 1.7-1.5 1.89-.2 6.27-2.98 10.36-9.49 10.26h-.42c-.32 0-3.95-.4-4.59-1.8 2.13.2 3.63-.4 4.37-1.09-.85-.3-2.56-.4-2.77-2.79.32.2.53.3 1.17.2-1.17-.8-2.45-1.5-2.34-3.48.32.3.96.5 1.28.4-.64-.2-1.92-3.1-.86-4.59 1.71 1.7 3.52 3.39 6.72 3.49.22-2.1 1.07-3.49 2.78-4.19Z" fill="#000"/></g></g><g clip-path="url(#g)"><path d="M36.67 430.68c-.1-.33-.27-.62-.51-.85-.25-.24-.56-.41-.9-.5C34.01 429 29 429 29 429c-2.1-.02-4.19.08-6.26.32-.34.09-.64.26-.9.5-.24.24-.42.53-.51.85a19.4 19.4 0 0 0-.33 3.67c0 1.22.1 2.45.33 3.66.09.32.27.61.51.85.25.23.56.4.9.5 1.27.32 6.26.32 6.26.32 2.09.02 4.18-.08 6.26-.31.34-.09.65-.26.9-.5.24-.23.42-.52.5-.85.24-1.2.35-2.43.34-3.66.02-1.23-.1-2.47-.33-3.68Zm-9.27 5.94v-4.56l4.18 2.28-4.18 2.28Z" fill="#000"/></g><g opacity=".6" clip-path="url(#h)"><path d="M68.67 430.68c-.1-.33-.27-.62-.51-.85-.25-.24-.56-.41-.9-.5C66.01 429 61 429 61 429c-2.1-.02-4.19.08-6.26.32-.34.09-.64.26-.9.5-.24.24-.42.53-.51.85a19.4 19.4 0 0 0-.33 3.67c0 1.22.1 2.45.33 3.66.09.32.27.61.51.85.25.23.56.4.9.5 1.27.32 6.26.32 6.26.32 2.09.02 4.18-.08 6.26-.31.34-.09.65-.26.9-.5.24-.23.42-.52.5-.85.24-1.2.35-2.43.34-3.66.02-1.23-.1-2.47-.33-3.68Zm-9.27 5.94v-4.56l4.18 2.28-4.18 2.28Z" fill="#000"/></g><g opacity=".3" clip-path="url(#i)"><path d="M100.67 430.68c-.1-.33-.27-.62-.51-.85-.25-.24-.56-.41-.9-.5C98.01 429 93 429 93 429c-2.1-.02-4.19.08-6.26.32-.34.09-.64.26-.9.5-.24.24-.42.53-.51.85a19.4 19.4 0 0 0-.33 3.67c0 1.22.1 2.45.33 3.66.09.32.27.61.51.85.25.23.56.4.9.5 1.27.32 6.26.32 6.26.32 2.09.02 4.18-.08 6.26-.31.34-.09.65-.26.9-.5.24-.23.42-.52.5-.85.24-1.2.35-2.43.34-3.66.02-1.23-.1-2.47-.33-3.68Zm-9.27 5.94v-4.56l4.18 2.28-4.18 2.28Z" fill="#000"/></g><path d="m34.44 459.07-11.82 4.56c-.8.33-.8.78-.14.98l3.03.94 7.02-4.43c.33-.2.64-.09.39.13l-5.7 5.13-.2 3.13c.3 0 .44-.14.61-.3l1.48-1.44 3.06 2.27c.57.31.97.15 1.12-.53l2-9.48c.21-.83-.3-1.2-.85-.96Z" fill="#000"/><path d="m66.44 459.07-11.82 4.56c-.8.33-.8.78-.14.98l3.03.94 7.02-4.43c.33-.2.64-.09.39.13l-5.7 5.13-.2 3.13c.3 0 .44-.14.61-.3l1.48-1.44 3.06 2.27c.57.31.97.15 1.12-.53l2-9.48c.21-.83-.3-1.2-.85-.96Z" fill="#000" opacity=".6"/><path d="m98.44 459.07-11.82 4.56c-.8.33-.8.78-.14.98l3.03.94 7.02-4.43c.33-.2.64-.09.39.13l-5.7 5.13-.2 3.13c.3 0 .44-.14.61-.3l1.48-1.44 3.06 2.27c.57.31.97.15 1.12-.53l2-9.48c.21-.83-.3-1.2-.85-.96Z" fill="#000" opacity=".3"/><rect x=".5" y=".5" width="119" height="484" rx="4.5" stroke="#7B61FF" stroke-dasharray="10 5"/><defs><clipPath id="a"><path fill="#fff" transform="rotate(-180 18.5 205)" d="M0 0h16v14H0z"/></clipPath><clipPath id="b"><path fill="#fff" transform="translate(21 396)" d="M0 0h16v14H0z"/></clipPath><clipPath id="c"><path fill="#fff" transform="rotate(-180 34.5 205)" d="M0 0h16v14H0z"/></clipPath><clipPath id="d"><path fill="#fff" transform="translate(53 396)" d="M0 0h16v14H0z"/></clipPath><clipPath id="e"><path fill="#fff" transform="rotate(-180 50.5 205)" d="M0 0h16v14H0z"/></clipPath><clipPath id="f"><path fill="#fff" transform="translate(85 396)" d="M0 0h16v14H0z"/></clipPath><clipPath id="g"><path fill="#fff" transform="translate(21 429)" d="M0 0h16v11H0z"/></clipPath><clipPath id="h"><path fill="#fff" transform="translate(53 429)" d="M0 0h16v11H0z"/></clipPath><clipPath id="i"><path fill="#fff" transform="translate(85 429)" d="M0 0h16v11H0z"/></clipPath></defs></svg>